<svg xmlns="http://www.w3.org/2000/svg" xmlns:xlink="http://www.w3.org/1999/xlink" xmlns:lucid="lucid" width="2009.75" height="850.89"><g transform="translate(-835.7920839325412 -1206.473546104492)" lucid:page-tab-id="0_0"><path d="M1059.72 1841l-46.37-.26M1059.67 1841h2.05" stroke="#e81313" stroke-width="4" fill="none"/><path d="M997.08 1840.65l14.3-4.56-.05 9.26z" stroke="#e81313" stroke-width="4" fill="#e81313"/><path d="M2434.44 1753.96v80.92a6 6 0 0 0 6 6h378.1a6 6 0 0 0 6-6v-601.4a6 6 0 0 0-6-6h-1309.3a6 6 0 0 0-6 6v352.44a6 6 0 0 0 6 6h45.53" stroke="#008a0e" stroke-width="4" fill="none"/><path d="M2436.44 1754h-4v-2.04h4z" stroke="#008a0e" stroke-width=".05" fill="#008a0e"/><path d="M1571.04 1591.92l-14.27 4.64v-9.27z" stroke="#008a0e" stroke-width="4" fill="#008a0e"/><path d="M1212.4 1297.4c18.14 0 32.85 13.2 32.85 29.5s-14.7 29.5-32.84 29.5h-98.5c-18.15 0-32.85-13.2-32.85-29.5s14.7-29.5 32.84-29.5z" stroke="#31bddf" stroke-width="5" fill="#fff"/><use xlink:href="#a" transform="matrix(1,0,0,1,1093.0479869155797,1309.3997802385377) translate(4.512345679012341 22.27777777777778)"/><path d="M1249.75 1326.9h40.68" stroke="#5e5e5e" stroke-width="4" fill="none"/><path d="M1249.8 1328.9h-2.2l.15-1.93-.04-1.55-.05-.52h2.15z" stroke="#5e5e5e" stroke-width=".05" fill="#5e5e5e"/><path d="M1306.7 1326.9l-14.27 4.64v-9.27z" stroke="#5e5e5e" stroke-width="4" fill="#5e5e5e"/><path d="M1314.63 1300.6a6 6 0 0 1 6-6h138.05a6 6 0 0 1 6 6v52.6a6 6 0 0 1-6 6h-138.05a6 6 0 0 1-6-6z" stroke="#1071e5" stroke-width="3" fill="#fff"/><use xlink:href="#b" transform="matrix(1,0,0,1,1326.6291536464355,1306.6019738687974) translate(27.05555555555555 23.6875)"/><path d="M1677.17 1269.65a10.62 10.62 0 0 1 10.45 0l97.92 55.34a3.4 3.4 0 0 1 0 5.9l-97.92 55.32a10.62 10.62 0 0 1-10.45 0l-97.93-55.33a3.4 3.4 0 0 1 0-5.9z" stroke="#31bddf" stroke-width="3" fill="#fff"/><use xlink:href="#c" transform="matrix(1,0,0,1,1586.0169521292462,1278.702469673991) translate(39.83216049382716 54.90277777777778)"/><path d="M1889.92 1307.16a6 6 0 0 1 6-6h126.4a6 6 0 0 1 6 6v41.55a6 6 0 0 1-6 6h-126.4a6 6 0 0 1-6-6z" stroke="#b8decd" stroke-width="3" fill="#fff"/><use xlink:href="#d" transform="matrix(1,0,0,1,1901.9212399537737,1313.1626069928625) translate(30.916666666666664 19.75)"/><path d="M2110.7 1438.82a6 6 0 0 1 6-6h126.42a6 6 0 0 1 6 6v41.55a6 6 0 0 1-6 6H2116.7a6 6 0 0 1-6-6z" stroke="#b8decd" stroke-width="3" fill="#fff"/><use xlink:href="#e" transform="matrix(1,0,0,1,2122.7047142092983,1444.823020367624) translate(17 19.75)"/><path d="M1468.14 1326.9h85.24" stroke="#5e5e5e" stroke-width="4" fill="none"/><path d="M1468.2 1328.9h-2.06v-4h2.05z" stroke="#5e5e5e" stroke-width=".05" fill="#5e5e5e"/><path d="M1569.65 1326.9l-14.27 4.64v-9.27z" stroke="#5e5e5e" stroke-width="4" fill="#5e5e5e"/><path d="M1679.85 1400.65a10.62 10.62 0 0 1 10.45 0l99.1 56a3.4 3.4 0 0 1 0 5.9l-99.1 56a10.62 10.62 0 0 1-10.45 0l-99.1-56a3.4 3.4 0 0 1 0-5.9z" stroke="#31bddf" stroke-width="3" fill="#fff"/><use xlink:href="#f" transform="matrix(1,0,0,1,1587.5178887867178,1409.696867881783) translate(44.41858024691358 55.27777777777778)"/><path d="M1679.85 1532.97a10.62 10.62 0 0 1 10.45 0l99.1 56a3.4 3.4 0 0 1 0 5.9l-99.1 56a10.62 10.62 0 0 1-10.45 0l-99.1-56a3.4 3.4 0 0 1 0-5.9z" stroke="#31bddf" stroke-width="3" fill="#fff"/><use xlink:href="#g" transform="matrix(1,0,0,1,1587.5178887867178,1542.0232964738652) translate(52.097592592592584 26.810111237060543)"/><use xlink:href="#h" transform="matrix(1,0,0,1,1587.5178887867178,1542.0232964738652) translate(91.57907407407409 53.47677790372721)"/><use xlink:href="#i" transform="matrix(1,0,0,1,1587.5178887867178,1542.0232964738652) translate(75.33216049382716 80.14344457039388)"/><use xlink:href="#j" transform="matrix(1,0,0,1,1587.5178887867178,1542.0232964738652) translate(80.27043209876543 80.14344457039388)"/><path d="M1733.2 1613.3a10.62 10.62 0 0 1 10.46 0l96.75 54.68a3.4 3.4 0 0 1 0 5.9l-96.74 54.67a10.62 10.62 0 0 1-10.45 0l-96.74-54.67a3.4 3.4 0 0 1 0-5.9z" stroke="#31bddf" stroke-width="3" fill="#fff"/><use xlink:href="#k" transform="matrix(1,0,0,1,1643.2408050813601,1622.3596593425234) translate(35.5 38)"/><use xlink:href="#l" transform="matrix(1,0,0,1,1643.2408050813601,1622.3596593425234) translate(142.16666666666669 38)"/><use xlink:href="#m" transform="matrix(1,0,0,1,1643.2408050813601,1622.3596593425234) translate(12.805555555555557 68)"/><use xlink:href="#n" transform="matrix(1,0,0,1,1643.2408050813601,1622.3596593425234) translate(120.52777777777779 68)"/><use xlink:href="#o" transform="matrix(1,0,0,1,1643.2408050813601,1622.3596593425234) translate(139.41666666666669 68)"/><path d="M1774.42 1693.66a10.62 10.62 0 0 1 10.45 0l96.75 54.67a3.4 3.4 0 0 1 0 5.9l-96.75 54.67a10.62 10.62 0 0 1-10.45 0l-96.75-54.67a3.4 3.4 0 0 1 0-5.9z" stroke="#31bddf" stroke-width="3" fill="#fff"/><use xlink:href="#p" transform="matrix(1,0,0,1,1684.449511390248,1702.712224908117) translate(26.26425925925924 54.03472222222222)"/><use xlink:href="#q" transform="matrix(1,0,0,1,1684.449511390248,1702.712224908117) translate(144.90623456790124 54.03472222222222)"/><path d="M1672.44 1751.28h-271.3a6 6 0 0 1-6-6V1383.4" stroke="#008a0e" stroke-width="4" fill="none"/><path d="M1674.55 1750.25l-.1 1.03.1 1.03.32.98h-2.48v-4h2.47z" stroke="#008a0e" stroke-width=".05" fill="#008a0e"/><path d="M1395.15 1367.14l4.64 14.27h-9.28z" stroke="#008a0e" stroke-width="4" fill="#008a0e"/><path d="M2031.8 1327.94H2086.46" stroke="#008a0e" stroke-width="4" fill="none"/><path d="M2031.85 1329.94h-2.05v-4h2.05z" stroke="#008a0e" stroke-width=".05" fill="#008a0e"/><path d="M2102.73 1327.94l-14.27 4.63v-9.27z" stroke="#008a0e" stroke-width="4" fill="#008a0e"/><path d="M1790.77 1327.93l74.95-.13" stroke="#5e5e5e" stroke-width="4" fill="none"/><path d="M1790.83 1329.93h-2.48l.3-.96.12-1.03-.1-1.03-.32-.96h2.47z" stroke="#5e5e5e" stroke-width=".05" fill="#5e5e5e"/><path d="M1881.98 1327.77l-14.25 4.66-.02-9.27z" stroke="#5e5e5e" stroke-width="4" fill="#5e5e5e"/><path d="M2217.38 1294.6c14.73 0 26.67 14.93 26.67 33.34 0 18.4-11.94 33.33-26.67 33.33h-80c-14.74 0-26.68-14.92-26.68-33.33 0-18.4 11.94-33.34 26.67-33.34z" stroke="#5e5e5e" stroke-width="3" fill="#b8decd"/><use xlink:href="#r" transform="matrix(1,0,0,1,2122.7047142092983,1306.6019738687974) translate(-2.1666666666666714 25.5)"/><path d="M2217.38 1587.97c14.73 0 26.67 14.93 26.67 33.34 0 18.42-11.94 33.34-26.67 33.34h-80c-14.74 0-26.68-14.92-26.68-33.33 0-18.4 11.94-33.33 26.67-33.33z" stroke="#5e5e5e" stroke-width="3" fill="#b8decd"/><use xlink:href="#s" transform="matrix(1,0,0,1,2122.7047142092983,1599.9702144007028) translate(20.611111111111107 26.75)"/><use xlink:href="#t" transform="matrix(1,0,0,1,2122.7047142092983,1599.9702144007028) translate(78.27777777777777 26.75)"/><path d="M1794.64 1591.96l42.07.83 32.16 2 27.03 2.82 29.03 4.32 81.02 13.67 27.02 2.85 32.15 2 21.35.4" stroke="#008a0e" stroke-width="4" stroke-linejoin="round" fill="none"/><path d="M1794.73 1589.97l-.08 4-2.44-.05.32-.97.1-1.03-.1-1.02-.32-.98z" stroke="#008a0e" stroke-width=".05" fill="#008a0e"/><path d="M2102.73 1621.18l-14.35 4.35.18-9.26z" stroke="#008a0e" stroke-width="4" fill="#008a0e"/><path d="M1845.64 1670.9l18.13-.38 16.7-1.04 14.36-1.5 12.78-1.9 11.83-2.24 11.45-2.68 11.93-3.34 14.7-4.8 52.53-18.6 11.94-3.34 11.45-2.7 11.8-2.24 12.8-1.88 14.36-1.5 14.1-.88" stroke="#008a0e" stroke-width="4" stroke-linejoin="round" fill="none"/><path d="M1845.74 1672.9l-2.53.04.33-.98.1-1.03-.1-1.03-.32-.96 2.45-.05z" stroke="#008a0e" stroke-width=".05" fill="#008a0e"/><path d="M2102.73 1621.47l-14.14 5-.24-9.28z" stroke="#008a0e" stroke-width="4" fill="#008a0e"/><path d="M1163.13 1360.9l-.22 396.1" stroke="#5e5e5e" stroke-width="4" fill="none"/><path d="M1165.13 1360.96h-4v-2.05h4z" stroke="#5e5e5e" stroke-width=".05" fill="#5e5e5e"/><path d="M1162.9 1773.27l-4.63-14.26h9.27z" stroke="#5e5e5e" stroke-width="4" fill="#5e5e5e"/><path d="M2177.38 1658.14v176.1a6 6 0 0 1-6 6H1290.8" stroke="#008a0e" stroke-width="4" fill="none"/><path d="M2179.38 1658.2h-4v-2.06h4z" stroke="#008a0e" stroke-width=".05" fill="#008a0e"/><path d="M1274.53 1840.24l14.27-4.64v9.27z" stroke="#008a0e" stroke-width="4" fill="#008a0e"/><path d="M1157.64 1782.62a10.62 10.62 0 0 1 10.44 0l96.75 54.67a3.4 3.4 0 0 1 0 5.9l-96.75 54.66a10.62 10.62 0 0 1-10.44 0l-96.75-54.67a3.4 3.4 0 0 1 0-5.9z" stroke="#31bddf" stroke-width="3" fill="#fff"/><use xlink:href="#u" transform="matrix(1,0,0,1,1067.662890371722,1791.6680208164269) translate(74.33833333333332 55.020833333333336)"/><path d="M1201.06 1970.7c14.73 0 26.67 14.92 26.67 33.33 0 18.4-11.94 33.34-26.67 33.34h-80c-14.74 0-26.68-14.93-26.68-33.34 0-18.4 11.94-33.33 26.67-33.33z" stroke="#5e5e5e" stroke-width="3" fill="#b8decd"/><use xlink:href="#v" transform="matrix(1,0,0,1,1106.3821254924976,1982.6952845969856) translate(39.5 26.75)"/><path d="M962.47 1806.9c14.73 0 26.67 14.93 26.67 33.34 0 18.4-11.94 33.33-26.67 33.33h-80c-14.74 0-26.68-14.92-26.68-33.33 0-18.4 11.93-33.34 26.66-33.34z" stroke="#5e5e5e" stroke-width="3" fill="#b8decd"/><use xlink:href="#w" transform="matrix(1,0,0,1,867.7920839325412,1818.9015098190882) translate(39.5 26.75)"/><path d="M1160.36 1898.97l.3 47.5M1160.36 1899.02l-.02-2.05" stroke="#008a0e" stroke-width="4" fill="none"/><path d="M1160.78 1962.72l-4.73-14.23 9.27-.07z" stroke="#008a0e" stroke-width="4" fill="#008a0e"/><path d="M1794.63 1459.6h291.87" stroke="#5e5e5e" stroke-width="4" fill="none"/><path d="M1794.68 1461.6h-2.48l.32-.97.1-1.03-.1-1.03-.32-.97h2.48z" stroke="#5e5e5e" stroke-width=".05" fill="#5e5e5e"/><path d="M2102.77 1459.6l-14.27 4.63v-9.27z" stroke="#5e5e5e" stroke-width="4" fill="#5e5e5e"/><path d="M2435.07 1310.88a10.62 10.62 0 0 1 10.45 0l70.6 39.9a3.4 3.4 0 0 1 0 5.9l-70.6 39.9a10.62 10.62 0 0 1-10.45 0l-70.6-39.9a3.4 3.4 0 0 1 0-5.9z" stroke="#31bddf" stroke-width="3" fill="#fff"/><use xlink:href="#x" transform="matrix(1,0,0,1,2371.2368309195717,1319.9261832066102) translate(62.33833333333333 37.25)"/><path d="M2252.58 1459.6h85.6" stroke="#5e5e5e" stroke-width="4" fill="none"/><path d="M2252.63 1461.6h-2.05v-4h2.05z" stroke="#5e5e5e" stroke-width=".05" fill="#5e5e5e"/><path d="M2354.44 1459.6l-14.26 4.63v-9.27z" stroke="#5e5e5e" stroke-width="4" fill="#5e5e5e"/><path d="M1941.93 1874.72a6 6 0 0 1 6-6h870.4a6 6 0 0 1 6 6V2028a6 6 0 0 1-6 6h-870.4a6 6 0 0 1-6-6z" stroke="#333" stroke-width="3" fill-opacity="0"/><path d="M2359.24 1702.95a6 6 0 0 1 6-6h138.4a6 6 0 0 1 6 6v41.55a6 6 0 0 1-6 6h-138.4a6 6 0 0 1-6-6z" stroke="#eae15f" stroke-width="3" fill="#fff"/><use xlink:href="#y" transform="matrix(1,0,0,1,2371.2368309195717,1708.9457120213199) translate(25.166666666666664 19.75)"/><path d="M2435.07 1384.1a10.62 10.62 0 0 1 10.45 0l70.6 39.9a3.4 3.4 0 0 1 0 5.9l-70.6 39.9a10.62 10.62 0 0 1-10.45 0l-70.6-39.9a3.4 3.4 0 0 1 0-5.9z" stroke="#31bddf" stroke-width="3" fill="#fff"/><use xlink:href="#z" transform="matrix(1,0,0,1,2371.2368309195717,1393.1458180398492) translate(62.33833333333333 37.25)"/><path d="M2435.07 1455.1a10.62 10.62 0 0 1 10.45 0l70.6 39.9a3.4 3.4 0 0 1 0 5.9l-70.6 39.9a10.62 10.62 0 0 1-10.45 0l-70.6-39.9a3.4 3.4 0 0 1 0-5.9z" stroke="#31bddf" stroke-width="3" fill="#fff"/><use xlink:href="#A" transform="matrix(1,0,0,1,2371.2368309195717,1464.150189027698) translate(61.81055555555555 37.25)"/><path d="M2435.07 1526.08a10.62 10.62 0 0 1 10.45 0l70.6 39.9a3.4 3.4 0 0 1 0 5.9l-70.6 39.9a10.62 10.62 0 0 1-10.45 0l-70.6-39.9a3.4 3.4 0 0 1 0-5.9z" stroke="#31bddf" stroke-width="3" fill="#fff"/><use xlink:href="#B" transform="matrix(1,0,0,1,2371.2368309195717,1535.1297555760184) translate(61.81055555555555 37.25)"/><path d="M2521.36 1353.77l.9.02 2.73.16 2.62.27 2.52.38 2.44.47 2.37.56 2.32.64 2.26.74 2.24.84 2.22.93 2.2 1.04 2.2 1.17 2.25 1.3 2.26 1.43 2.33 1.6 2.4 1.83 2.48 2.06 2.63 2.35 2.82 2.76 3.08 3.3 3.5 4.07 4.26 5.38 6.24 8.63 20.82 30.15 4.26 5.38 3.5 4.08 3.1 3.3 2.8 2.75 2.63 2.36 2.5 2.05 2.38 1.82 2.3 1.6 2.28 1.45 2.24 1.3 2.22 1.15 2.2 1.04 2.23.94.16.06" stroke="#5e5e5e" stroke-width="4" stroke-linejoin="round" fill="none"/><path d="M2521.45 1351.77l-.1 4-2.42-.05.3-.97.12-1.02-.1-1.03-.33-.98z" stroke="#5e5e5e" stroke-width=".05" fill="#5e5e5e"/><path d="M2654.14 1458l-14.87 2 1.66-9.12z" stroke="#5e5e5e" stroke-width="4" fill="#5e5e5e"/><path d="M2521.36 1427l6.9.13 7.63.47 6.67.7 6 .9 5.52 1.04 5.2 1.22 5.12 1.43 5.23 1.7 5.85 2.17 8.52 3.6 20.34 8.96 5.84 2.18 5.24 1.7 5.1 1.44 5.23 1.22 5.52 1.05 5.98.9.54.05" stroke="#5e5e5e" stroke-width="4" stroke-linejoin="round" fill="none"/><path d="M2521.45 1425l-.08 4-2.44-.06.3-.97.12-1.03-.1-1.02-.33-.98z" stroke="#5e5e5e" stroke-width=".05" fill="#5e5e5e"/><path d="M2654.04 1458.78l-14.5 3.8.52-9.24z" stroke="#5e5e5e" stroke-width="4" fill="#5e5e5e"/><path d="M2521.36 1497.9l5.5-.1 6.57-.42 5.87-.6 5.32-.8 4.92-.93 4.63-1.1 4.44-1.23 4.38-1.42 4.45-1.65 4.75-2 5.6-2.64 29.9-15.55 4.75-2 4.44-1.65 4.38-1.42 4.44-1.24 4.62-1.1 4.92-.92 2.6-.4" stroke="#5e5e5e" stroke-width="4" stroke-linejoin="round" fill="none"/><path d="M2521.45 1499.9l-2.53.06.32-.98.1-1.03-.1-1.03-.3-.96 2.43-.05z" stroke="#5e5e5e" stroke-width=".05" fill="#5e5e5e"/><path d="M2654.05 1459.6l-13.9 5.62-.66-9.25z" stroke="#5e5e5e" stroke-width="4" fill="#5e5e5e"/><path d="M2521.36 1568.9l.77-.03 2.65-.17 2.54-.26 2.44-.36 2.36-.45 2.3-.54 2.24-.64 2.2-.72 2.2-.8 2.15-.9 2.16-1.03 2.16-1.12 2.18-1.25 2.2-1.4 2.27-1.58 2.32-1.76 2.4-2.02 2.55-2.3 2.7-2.64 2.96-3.14 3.3-3.83 3.88-4.9 5.07-7 26.23-39.07 3.87-4.9 3.3-3.82 2.94-3.14 2.7-2.65 2.55-2.3 2.4-2 2.34-1.77 2.25-1.57 2.2-1.4 2.2-1.26 2.15-1.13 2.15-1 1.65-.7" stroke="#5e5e5e" stroke-width="4" stroke-linejoin="round" fill="none"/><path d="M2521.45 1570.9l-2.53.04.32-.98.1-1.03-.1-1.03-.3-.96 2.42-.05z" stroke="#5e5e5e" stroke-width=".05" fill="#5e5e5e"/><path d="M2654.14 1460.36l-13.15 7.2-1.74-9.1z" stroke="#5e5e5e" stroke-width="4" fill="#5e5e5e"/><path d="M2661.97 1438.38a6 6 0 0 1 6-6h138.4a6 6 0 0 1 6 6v41.55a6 6 0 0 1-6 6h-138.4a6 6 0 0 1-6-6z" stroke="#eae15f" stroke-width="3" fill="#fff"/><use xlink:href="#C" transform="matrix(1,0,0,1,2673.966567080194,1444.3787232840778) translate(20.77777777777777 19.75)"/><path d="M2737.17 1489.4v159.68a6 6 0 0 1-6 6h-268.94" stroke="#008a0e" stroke-width="4" fill="none"/><path d="M2739.17 1489.44h-4v-2.05h4z" stroke="#008a0e" stroke-width=".05" fill="#008a0e"/><path d="M2445.96 1655.08l14.27-4.63v9.27z" stroke="#008a0e" stroke-width="4" fill="#008a0e"/><path d="M2440.25 1616.65l-1.1 56.1" stroke="#5e5e5e" stroke-width="4" fill="none"/><path d="M2442.25 1616.74l-4-.08.04-2.2.75.13 1.24.05 1.24-.06.76-.13z" stroke="#5e5e5e" stroke-width=".05" fill="#5e5e5e"/><path d="M2438.8 1689l-4.34-14.35 9.27.2z" stroke="#5e5e5e" stroke-width="4" fill="#5e5e5e"/><path d="M1948.3 1884.8a6 6 0 0 1 6-6h323.68a6 6 0 0 1 6 6v36a6 6 0 0 1-6 6H1954.3a6 6 0 0 1-6-6z" fill="none"/><use xlink:href="#D" transform="matrix(1,0,0,1,1960.3037093182345,1890.791937807311) translate(0 16.5)"/><use xlink:href="#E" transform="matrix(1,0,0,1,1960.3037093182345,1890.791937807311) translate(17.77777777777778 16.5)"/><use xlink:href="#F" transform="matrix(1,0,0,1,1960.3037093182345,1890.791937807311) translate(29.944444444444443 16.5)"/><use xlink:href="#G" transform="matrix(1,0,0,1,1960.3037093182345,1890.791937807311) translate(45.44444444444444 16.5)"/><use xlink:href="#H" transform="matrix(1,0,0,1,1960.3037093182345,1890.791937807311) translate(138.77777777777777 16.5)"/><use xlink:href="#I" transform="matrix(1,0,0,1,1960.3037093182345,1890.791937807311) translate(158.72222222222223 16.5)"/><use xlink:href="#J" transform="matrix(1,0,0,1,1960.3037093182345,1890.791937807311) translate(188.5 16.5)"/><use xlink:href="#H" transform="matrix(1,0,0,1,1960.3037093182345,1890.791937807311) translate(227.38888888888889 16.5)"/><use xlink:href="#K" transform="matrix(1,0,0,1,1960.3037093182345,1890.791937807311) translate(247.33333333333331 16.5)"/><use xlink:href="#L" transform="matrix(1,0,0,1,1960.3037093182345,1890.791937807311) translate(280.66666666666663 16.5)"/><path d="M1948.3 1953.63a6 6 0 0 1 6-6h291.46a6 6 0 0 1 6 6v36a6 6 0 0 1-6 6H1954.3a6 6 0 0 1-6-6z" fill="none"/><use xlink:href="#M" transform="matrix(1,0,0,1,1960.3037093182352,1959.6324534729758) translate(0 16.5)"/><use xlink:href="#E" transform="matrix(1,0,0,1,1960.3037093182352,1959.6324534729758) translate(18.888888888888886 16.5)"/><use xlink:href="#F" transform="matrix(1,0,0,1,1960.3037093182352,1959.6324534729758) translate(31.05555555555555 16.5)"/><use xlink:href="#G" transform="matrix(1,0,0,1,1960.3037093182352,1959.6324534729758) translate(46.55555555555555 16.5)"/><use xlink:href="#H" transform="matrix(1,0,0,1,1960.3037093182352,1959.6324534729758) translate(139.88888888888889 16.5)"/><use xlink:href="#I" transform="matrix(1,0,0,1,1960.3037093182352,1959.6324534729758) translate(159.83333333333331 16.5)"/><use xlink:href="#J" transform="matrix(1,0,0,1,1960.3037093182352,1959.6324534729758) translate(189.6111111111111 16.5)"/><use xlink:href="#H" transform="matrix(1,0,0,1,1960.3037093182352,1959.6324534729758) translate(228.49999999999997 16.5)"/><use xlink:href="#L" transform="matrix(1,0,0,1,1960.3037093182352,1959.6324534729758) translate(248.4444444444444 16.5)"/><path d="M1978.34 1916.97a6 6 0 0 1 6-6h284.8a6 6 0 0 1 6 6v36a6 6 0 0 1-6 6h-284.8a6 6 0 0 1-6-6z" fill="none"/><g><use xlink:href="#N" transform="matrix(1,0,0,1,1990.3387902226423,1922.9674236497697) translate(0 16.5)"/><use xlink:href="#E" transform="matrix(1,0,0,1,1990.3387902226423,1922.9674236497697) translate(27.77777777777778 16.5)"/><use xlink:href="#O" transform="matrix(1,0,0,1,1990.3387902226423,1922.9674236497697) translate(39.94444444444444 16.5)"/><use xlink:href="#P" transform="matrix(1,0,0,1,1990.3387902226423,1922.9674236497697) translate(76.5 16.5)"/><use xlink:href="#Q" transform="matrix(1,0,0,1,1990.3387902226423,1922.9674236497697) translate(117.5 16.5)"/><use xlink:href="#R" transform="matrix(1,0,0,1,1990.3387902226423,1922.9674236497697) translate(152.83333333333334 16.5)"/><use xlink:href="#S" transform="matrix(1,0,0,1,1990.3387902226423,1922.9674236497697) translate(212.77777777777777 16.5)"/></g><path d="M1978.34 1981.9a6 6 0 0 1 6-6h324.8a6 6 0 0 1 6 6v36.02a6 6 0 0 1-6 6h-324.8a6 6 0 0 1-6-6z" fill="none"/><g><use xlink:href="#N" transform="matrix(1,0,0,1,1990.3387902226423,1987.9134468518441) translate(0 16.5)"/><use xlink:href="#E" transform="matrix(1,0,0,1,1990.3387902226423,1987.9134468518441) translate(27.77777777777778 16.5)"/><use xlink:href="#O" transform="matrix(1,0,0,1,1990.3387902226423,1987.9134468518441) translate(39.94444444444444 16.5)"/><use xlink:href="#P" transform="matrix(1,0,0,1,1990.3387902226423,1987.9134468518441) translate(76.5 16.5)"/><use xlink:href="#I" transform="matrix(1,0,0,1,1990.3387902226423,1987.9134468518441) translate(117.5 16.5)"/><use xlink:href="#J" transform="matrix(1,0,0,1,1990.3387902226423,1987.9134468518441) translate(147.27777777777777 16.5)"/><use xlink:href="#T" transform="matrix(1,0,0,1,1990.3387902226423,1987.9134468518441) translate(186.16666666666666 16.5)"/><use xlink:href="#U" transform="matrix(1,0,0,1,1990.3387902226423,1987.9134468518441) translate(225 16.5)"/></g><path d="M2332.28 1884.8a6 6 0 0 1 6-6h368a6 6 0 0 1 6 6v36a6 6 0 0 1-6 6h-368a6 6 0 0 1-6-6z" fill="none"/><g><use xlink:href="#V" transform="matrix(1,0,0,1,2344.2761919831137,1890.791937807311) translate(0 16.5)"/><use xlink:href="#E" transform="matrix(1,0,0,1,2344.2761919831137,1890.791937807311) translate(19.944444444444443 16.5)"/><use xlink:href="#W" transform="matrix(1,0,0,1,2344.2761919831137,1890.791937807311) translate(32.11111111111111 16.5)"/><use xlink:href="#F" transform="matrix(1,0,0,1,2344.2761919831137,1890.791937807311) translate(74.27777777777777 16.5)"/><use xlink:href="#G" transform="matrix(1,0,0,1,2344.2761919831137,1890.791937807311) translate(89.77777777777777 16.5)"/><use xlink:href="#H" transform="matrix(1,0,0,1,2344.2761919831137,1890.791937807311) translate(183.11111111111111 16.5)"/><use xlink:href="#I" transform="matrix(1,0,0,1,2344.2761919831137,1890.791937807311) translate(203.05555555555554 16.5)"/><use xlink:href="#J" transform="matrix(1,0,0,1,2344.2761919831137,1890.791937807311) translate(232.83333333333331 16.5)"/><use xlink:href="#H" transform="matrix(1,0,0,1,2344.2761919831137,1890.791937807311) translate(271.7222222222222 16.5)"/><use xlink:href="#K" transform="matrix(1,0,0,1,2344.2761919831137,1890.791937807311) translate(291.66666666666663 16.5)"/><use xlink:href="#L" transform="matrix(1,0,0,1,2344.2761919831137,1890.791937807311) translate(324.99999999999994 16.5)"/></g><path d="M2332.28 1948.08a6 6 0 0 1 6-6H2419a6 6 0 0 1 6 6v36a6 6 0 0 1-6 6h-80.72a6 6 0 0 1-6-6z" fill="none"/><g><use xlink:href="#X" transform="matrix(1,0,0,1,2344.276191983114,1954.0788641112126) translate(0 16.5)"/><use xlink:href="#E" transform="matrix(1,0,0,1,2344.276191983114,1954.0788641112126) translate(19.944444444444443 16.5)"/><use xlink:href="#Y" transform="matrix(1,0,0,1,2344.276191983114,1954.0788641112126) translate(32.11111111111111 16.5)"/></g><path d="M2362.3 1914.73a6 6 0 0 1 6-6h356.02a6 6 0 0 1 6 6v36a6 6 0 0 1-6 6h-356a6 6 0 0 1-6-6z" fill="none"/><g><use xlink:href="#N" transform="matrix(1,0,0,1,2374.311272887521,1920.7320280843524) translate(0 16.5)"/><use xlink:href="#E" transform="matrix(1,0,0,1,2374.311272887521,1920.7320280843524) translate(27.77777777777778 16.5)"/><use xlink:href="#Z" transform="matrix(1,0,0,1,2374.311272887521,1920.7320280843524) translate(39.94444444444444 16.5)"/><use xlink:href="#G" transform="matrix(1,0,0,1,2374.311272887521,1920.7320280843524) translate(111.05555555555556 16.5)"/><use xlink:href="#aa" transform="matrix(1,0,0,1,2374.311272887521,1920.7320280843524) translate(204.3888888888889 16.5)"/><use xlink:href="#O" transform="matrix(1,0,0,1,2374.311272887521,1920.7320280843524) translate(226.61111111111114 16.5)"/><use xlink:href="#ab" transform="matrix(1,0,0,1,2374.311272887521,1920.7320280843524) translate(263.1666666666667 16.5)"/><use xlink:href="#ac" transform="matrix(1,0,0,1,2374.311272887521,1920.7320280843524) translate(306.3888888888889 16.5)"/></g><path d="M2362.3 1979.68a6 6 0 0 1 6-6H2809a6 6 0 0 1 6 6v36a6 6 0 0 1-6 6h-440.7a6 6 0 0 1-6-6z" fill="none"/><g><use xlink:href="#N" transform="matrix(1,0,0,1,2374.311272887521,1985.678051286427) translate(0 16.5)"/><use xlink:href="#E" transform="matrix(1,0,0,1,2374.311272887521,1985.678051286427) translate(27.77777777777778 16.5)"/><use xlink:href="#ad" transform="matrix(1,0,0,1,2374.311272887521,1985.678051286427) translate(39.94444444444444 16.5)"/><use xlink:href="#G" transform="matrix(1,0,0,1,2374.311272887521,1985.678051286427) translate(73.27777777777777 16.5)"/><use xlink:href="#aa" transform="matrix(1,0,0,1,2374.311272887521,1985.678051286427) translate(166.61111111111111 16.5)"/><use xlink:href="#ae" transform="matrix(1,0,0,1,2374.311272887521,1985.678051286427) translate(188.83333333333334 16.5)"/><use xlink:href="#T" transform="matrix(1,0,0,1,2374.311272887521,1985.678051286427) translate(230.94444444444446 16.5)"/><use xlink:href="#G" transform="matrix(1,0,0,1,2374.311272887521,1985.678051286427) translate(269.77777777777777 16.5)"/><use xlink:href="#J" transform="matrix(1,0,0,1,2374.311272887521,1985.678051286427) translate(363.1111111111111 16.5)"/><use xlink:href="#af" transform="matrix(1,0,0,1,2374.311272887521,1985.678051286427) translate(402 16.5)"/></g><path d="M1794.63 1874.72a6 6 0 0 1 6-6h120.23a6 6 0 0 1 6 6V2028a6 6 0 0 1-6 6h-120.23a6 6 0 0 1-6-6z" stroke="#333" stroke-width="3" fill-opacity="0"/><path d="M1800.82 1875.32a6 6 0 0 1 6-6h52.57a6 6 0 0 1 6 6V1914a6 6 0 0 1-6 6h-52.58a6 6 0 0 1-6-6z" fill="none"/><g><use xlink:href="#ag" transform="matrix(1,0,0,1,1812.821613032859,1881.3225349475856) translate(0 17.944444444444443)"/></g><path d="M1800.82 1914.05a6 6 0 0 1 6-6h98.83a6 6 0 0 1 6 6v113.34a6 6 0 0 1-6 6h-98.83a6 6 0 0 1-6-6z" fill="none"/><g><use xlink:href="#ah" transform="matrix(1,0,0,1,1812.821613032859,1920.0495163782364) translate(0 14.555555555555545)"/><use xlink:href="#ai" transform="matrix(1,0,0,1,1812.821613032859,1920.0495163782364) translate(0 41.222222222222214)"/><use xlink:href="#aj" transform="matrix(1,0,0,1,1812.821613032859,1920.0495163782364) translate(0 67.88888888888889)"/><use xlink:href="#ak" transform="matrix(1,0,0,1,1812.821613032859,1920.0495163782364) translate(0 94.55555555555557)"/></g><defs><path fill="#333" d="M177-190C167-65 218 103 67 71c-23-6-38-20-44-43l32-5c15 47 100 32 89-28v-30C133-14 115 1 83 1 29 1 15-40 15-95c0-56 16-97 71-98 29-1 48 16 59 35 1-10 0-23 2-32h30zM94-22c36 0 50-32 50-73 0-42-14-75-50-75-39 0-46 34-46 75s6 73 46 73" id="al"/><path fill="#333" d="M100-194c63 0 86 42 84 106H49c0 40 14 67 53 68 26 1 43-12 49-29l28 8c-11 28-37 45-77 45C44 4 14-33 15-96c1-61 26-98 85-98zm52 81c6-60-76-77-97-28-3 7-6 17-6 28h103" id="am"/><path fill="#333" d="M59-47c-2 24 18 29 38 22v24C64 9 27 4 27-40v-127H5v-23h24l9-43h21v43h35v23H59v120" id="an"/><path fill="#333" d="M-5 72V49h209v23H-5" id="ao"/><path fill="#333" d="M117-194c89-4 53 116 60 194h-32v-121c0-31-8-49-39-48C34-167 62-67 57 0H25l-1-190h30c1 10-1 24 2 32 11-22 29-35 61-36" id="ap"/><path fill="#333" d="M141 0L90-78 38 0H4l68-98-65-92h35l48 74 47-74h35l-64 92 68 98h-35" id="aq"/><path fill="#333" d="M24 0v-261h32V0H24" id="ar"/><path fill="#333" d="M24-231v-30h32v30H24zM24 0v-190h32V0H24" id="as"/><g id="a"><use transform="matrix(0.06172839506172839,0,0,0.06172839506172839,0,0)" xlink:href="#al"/><use transform="matrix(0.06172839506172839,0,0,0.06172839506172839,12.345679012345679,0)" xlink:href="#am"/><use transform="matrix(0.06172839506172839,0,0,0.06172839506172839,24.691358024691358,0)" xlink:href="#an"/><use transform="matrix(0.06172839506172839,0,0,0.06172839506172839,30.864197530864196,0)" xlink:href="#ao"/><use transform="matrix(0.06172839506172839,0,0,0.06172839506172839,43.20987654320987,0)" xlink:href="#ap"/><use transform="matrix(0.06172839506172839,0,0,0.06172839506172839,55.55555555555555,0)" xlink:href="#am"/><use transform="matrix(0.06172839506172839,0,0,0.06172839506172839,67.90123456790123,0)" xlink:href="#aq"/><use transform="matrix(0.06172839506172839,0,0,0.06172839506172839,79.01234567901234,0)" xlink:href="#an"/><use transform="matrix(0.06172839506172839,0,0,0.06172839506172839,85.18518518518518,0)" xlink:href="#ao"/><use transform="matrix(0.06172839506172839,0,0,0.06172839506172839,97.53086419753086,0)" xlink:href="#ar"/><use transform="matrix(0.06172839506172839,0,0,0.06172839506172839,102.4074074074074,0)" xlink:href="#as"/><use transform="matrix(0.06172839506172839,0,0,0.06172839506172839,107.28395061728395,0)" xlink:href="#ap"/><use transform="matrix(0.06172839506172839,0,0,0.06172839506172839,119.62962962962963,0)" xlink:href="#am"/></g><path fill="#333" d="M101-234c-31-9-42 10-38 44h38v23H63V0H32v-167H5v-23h27c-7-52 17-82 69-68v24" id="at"/><path fill="#333" d="M115-194c53 0 69 39 70 98 0 66-23 100-70 100C84 3 66-7 56-30L54 0H23l1-261h32v101c10-23 28-34 59-34zm-8 174c40 0 45-34 45-75 0-40-5-75-45-74-42 0-51 32-51 76 0 43 10 73 51 73" id="au"/><path fill="#333" d="M84 4C-5 8 30-112 23-190h32v120c0 31 7 50 39 49 72-2 45-101 50-169h31l1 190h-30c-1-10 1-25-2-33-11 22-28 36-60 37" id="av"/><path fill="#333" d="M114-163C36-179 61-72 57 0H25l-1-190h30c1 12-1 29 2 39 6-27 23-49 58-41v29" id="aw"/><g id="b"><use transform="matrix(0.05555555555555555,0,0,0.05555555555555555,0,0)" xlink:href="#at"/><use transform="matrix(0.05555555555555555,0,0,0.05555555555555555,5.555555555555555,0)" xlink:href="#an"/><use transform="matrix(0.05555555555555555,0,0,0.05555555555555555,11.11111111111111,0)" xlink:href="#ao"/><use transform="matrix(0.05555555555555555,0,0,0.05555555555555555,22.22222222222222,0)" xlink:href="#au"/><use transform="matrix(0.05555555555555555,0,0,0.05555555555555555,33.33333333333333,0)" xlink:href="#av"/><use transform="matrix(0.05555555555555555,0,0,0.05555555555555555,44.44444444444444,0)" xlink:href="#at"/><use transform="matrix(0.05555555555555555,0,0,0.05555555555555555,49.611111111111114,0)" xlink:href="#at"/><use transform="matrix(0.05555555555555555,0,0,0.05555555555555555,55.16666666666667,0)" xlink:href="#am"/><use transform="matrix(0.05555555555555555,0,0,0.05555555555555555,66.27777777777779,0)" xlink:href="#aw"/></g><path fill="#333" d="M63-70H37l-4-178h34zM33 0v-35h34V0H33" id="ax"/><path fill="#333" d="M80-196l47-18 7 23-49 13 32 44-20 13-27-46-27 45-21-12 33-44-49-13 8-23 47 19-2-53h23" id="ay"/><path fill="#333" d="M115-194c55 1 70 41 70 98S169 2 115 4C84 4 66-9 55-30l1 105H24l-1-265h31l2 30c10-21 28-34 59-34zm-8 174c40 0 45-34 45-75s-6-73-45-74c-42 0-51 32-51 76 0 43 10 73 51 73" id="az"/><path fill="#333" d="M33 0v-38h34V0H33" id="aA"/><path fill="#333" d="M96-169c-40 0-48 33-48 73s9 75 48 75c24 0 41-14 43-38l32 2c-6 37-31 61-74 61-59 0-76-41-82-99-10-93 101-131 147-64 4 7 5 14 7 22l-32 3c-4-21-16-35-41-35" id="aB"/><path fill="#333" d="M100-194c62-1 85 37 85 99 1 63-27 99-86 99S16-35 15-95c0-66 28-99 85-99zM99-20c44 1 53-31 53-75 0-43-8-75-51-75s-53 32-53 75 10 74 51 75" id="aC"/><g id="c"><use transform="matrix(0.06172839506172839,0,0,0.06172839506172839,0,0)" xlink:href="#ax"/><use transform="matrix(0.06172839506172839,0,0,0.06172839506172839,6.172839506172839,0)" xlink:href="#ay"/><use transform="matrix(0.06172839506172839,0,0,0.06172839506172839,14.814814814814813,0)" xlink:href="#an"/><use transform="matrix(0.06172839506172839,0,0,0.06172839506172839,20.98765432098765,0)" xlink:href="#az"/><use transform="matrix(0.06172839506172839,0,0,0.06172839506172839,33.33333333333333,0)" xlink:href="#aA"/><use transform="matrix(0.06172839506172839,0,0,0.06172839506172839,39.50617283950617,0)" xlink:href="#aB"/><use transform="matrix(0.06172839506172839,0,0,0.06172839506172839,50.61728395061728,0)" xlink:href="#aC"/><use transform="matrix(0.06172839506172839,0,0,0.06172839506172839,62.962962962962955,0)" xlink:href="#ap"/><use transform="matrix(0.06172839506172839,0,0,0.06172839506172839,75.30864197530863,0)" xlink:href="#an"/><use transform="matrix(0.06172839506172839,0,0,0.06172839506172839,81.48148148148147,0)" xlink:href="#am"/><use transform="matrix(0.06172839506172839,0,0,0.06172839506172839,93.82716049382715,0)" xlink:href="#ap"/><use transform="matrix(0.06172839506172839,0,0,0.06172839506172839,106.17283950617283,0)" xlink:href="#an"/></g><path fill="#333" d="M141-36C126-15 110 5 73 4 37 3 15-17 15-53c-1-64 63-63 125-63 3-35-9-54-41-54-24 1-41 7-42 31l-33-3c5-37 33-52 76-52 45 0 72 20 72 64v82c-1 20 7 32 28 27v20c-31 9-61-2-59-35zM48-53c0 20 12 33 32 33 41-3 63-29 60-74-43 2-92-5-92 41" id="aD"/><path fill="#333" d="M85-194c31 0 48 13 60 33l-1-100h32l1 261h-30c-2-10 0-23-3-31C134-8 116 4 85 4 32 4 16-35 15-94c0-66 23-100 70-100zm9 24c-40 0-46 34-46 75 0 40 6 74 45 74 42 0 51-32 51-76 0-42-9-74-50-73" id="aE"/><path fill="#333" d="M87 75C49 33 22-17 22-94c0-76 28-126 65-167h31c-38 41-64 92-64 168S80 34 118 75H87" id="aF"/><path fill="#333" d="M33-261c38 41 65 92 65 168S71 34 33 75H2C39 34 66-17 66-93S39-220 2-261h31" id="aG"/><g id="d"><use transform="matrix(0.05555555555555555,0,0,0.05555555555555555,0,0)" xlink:href="#aw"/><use transform="matrix(0.05555555555555555,0,0,0.05555555555555555,6.611111111111111,0)" xlink:href="#am"/><use transform="matrix(0.05555555555555555,0,0,0.05555555555555555,17.72222222222222,0)" xlink:href="#aD"/><use transform="matrix(0.05555555555555555,0,0,0.05555555555555555,28.833333333333332,0)" xlink:href="#aE"/><use transform="matrix(0.05555555555555555,0,0,0.05555555555555555,39.94444444444444,0)" xlink:href="#aF"/><use transform="matrix(0.05555555555555555,0,0,0.05555555555555555,46.55555555555556,0)" xlink:href="#aG"/></g><g id="e"><use transform="matrix(0.05555555555555555,0,0,0.05555555555555555,0,0)" xlink:href="#at"/><use transform="matrix(0.05555555555555555,0,0,0.05555555555555555,5.555555555555555,0)" xlink:href="#an"/><use transform="matrix(0.05555555555555555,0,0,0.05555555555555555,11.11111111111111,0)" xlink:href="#ao"/><use transform="matrix(0.05555555555555555,0,0,0.05555555555555555,22.22222222222222,0)" xlink:href="#an"/><use transform="matrix(0.05555555555555555,0,0,0.05555555555555555,27.77777777777778,0)" xlink:href="#az"/><use transform="matrix(0.05555555555555555,0,0,0.05555555555555555,38.888888888888886,0)" xlink:href="#ao"/><use transform="matrix(0.05555555555555555,0,0,0.05555555555555555,50,0)" xlink:href="#ar"/><use transform="matrix(0.05555555555555555,0,0,0.05555555555555555,54.388888888888886,0)" xlink:href="#as"/><use transform="matrix(0.05555555555555555,0,0,0.05555555555555555,58.77777777777777,0)" xlink:href="#ap"/><use transform="matrix(0.05555555555555555,0,0,0.05555555555555555,69.88888888888889,0)" xlink:href="#am"/></g><g id="f"><use transform="matrix(0.06172839506172839,0,0,0.06172839506172839,0,0)" xlink:href="#ay"/><use transform="matrix(0.06172839506172839,0,0,0.06172839506172839,8.641975308641975,0)" xlink:href="#an"/><use transform="matrix(0.06172839506172839,0,0,0.06172839506172839,14.814814814814813,0)" xlink:href="#az"/><use transform="matrix(0.06172839506172839,0,0,0.06172839506172839,27.160493827160494,0)" xlink:href="#aA"/><use transform="matrix(0.06172839506172839,0,0,0.06172839506172839,33.333333333333336,0)" xlink:href="#aB"/><use transform="matrix(0.06172839506172839,0,0,0.06172839506172839,44.44444444444444,0)" xlink:href="#aC"/><use transform="matrix(0.06172839506172839,0,0,0.06172839506172839,56.79012345679012,0)" xlink:href="#ap"/><use transform="matrix(0.06172839506172839,0,0,0.06172839506172839,69.1358024691358,0)" xlink:href="#an"/><use transform="matrix(0.06172839506172839,0,0,0.06172839506172839,75.30864197530863,0)" xlink:href="#am"/><use transform="matrix(0.06172839506172839,0,0,0.06172839506172839,87.65432098765432,0)" xlink:href="#ap"/><use transform="matrix(0.06172839506172839,0,0,0.06172839506172839,100,0)" xlink:href="#an"/></g><path fill="#333" d="M135-143c-3-34-86-38-87 0 15 53 115 12 119 90S17 21 10-45l28-5c4 36 97 45 98 0-10-56-113-15-118-90-4-57 82-63 122-42 12 7 21 19 24 35" id="aH"/><path fill="#333" d="M9 0v-24l116-142H16v-24h144v24L44-24h123V0H9" id="aI"/><g id="g"><use transform="matrix(0.04938271604938272,0,0,0.04938271604938272,0,0)" xlink:href="#ax"/><use transform="matrix(0.04938271604938272,0,0,0.04938271604938272,4.938271604938272,0)" xlink:href="#an"/><use transform="matrix(0.04938271604938272,0,0,0.04938271604938272,9.876543209876544,0)" xlink:href="#az"/><use transform="matrix(0.04938271604938272,0,0,0.04938271604938272,19.75308641975309,0)" xlink:href="#aA"/><use transform="matrix(0.04938271604938272,0,0,0.04938271604938272,24.69135802469136,0)" xlink:href="#aH"/><use transform="matrix(0.04938271604938272,0,0,0.04938271604938272,33.580246913580254,0)" xlink:href="#as"/><use transform="matrix(0.04938271604938272,0,0,0.04938271604938272,37.48148148148149,0)" xlink:href="#aI"/><use transform="matrix(0.04938271604938272,0,0,0.04938271604938272,46.37037037037038,0)" xlink:href="#am"/><use transform="matrix(0.04938271604938272,0,0,0.04938271604938272,56.24691358024693,0)" xlink:href="#ao"/><use transform="matrix(0.04938271604938272,0,0,0.04938271604938272,66.12345679012347,0)" xlink:href="#au"/><use transform="matrix(0.04938271604938272,0,0,0.04938271604938272,76.00000000000001,0)" xlink:href="#av"/><use transform="matrix(0.04938271604938272,0,0,0.04938271604938272,85.87654320987656,0)" xlink:href="#at"/></g><path fill="#333" d="M234-2c-28 10-62 0-77-18C117 19 8 12 13-65c3-43 29-61 60-76-25-40-17-114 47-108 35 3 59 15 59 50 0 44-40 53-71 69 14 26 32 50 51 72 14-21 24-43 30-72l26 8c-9 33-21 57-38 82 13 13 33 22 57 15v23zM97-151c25-10 52-18 56-48-1-18-13-29-33-29-42 0-39 50-23 77zM42-66c-3 51 71 58 98 28-20-24-41-51-56-80-23 10-40 24-42 52" id="aJ"/><use transform="matrix(0.04938271604938272,0,0,0.04938271604938272,0,0)" xlink:href="#aJ" id="h"/><g id="j"><use transform="matrix(0.04938271604938272,0,0,0.04938271604938272,0,0)" xlink:href="#ax"/><use transform="matrix(0.04938271604938272,0,0,0.04938271604938272,4.938271604938272,0)" xlink:href="#ay"/><use transform="matrix(0.04938271604938272,0,0,0.04938271604938272,11.851851851851853,0)" xlink:href="#ar"/><use transform="matrix(0.04938271604938272,0,0,0.04938271604938272,15.753086419753087,0)" xlink:href="#as"/><use transform="matrix(0.04938271604938272,0,0,0.04938271604938272,19.654320987654323,0)" xlink:href="#ap"/><use transform="matrix(0.04938271604938272,0,0,0.04938271604938272,29.530864197530867,0)" xlink:href="#am"/></g><g id="k"><use transform="matrix(0.05555555555555555,0,0,0.05555555555555555,0,0)" xlink:href="#ax"/><use transform="matrix(0.05555555555555555,0,0,0.05555555555555555,5.555555555555555,0)" xlink:href="#ay"/><use transform="matrix(0.05555555555555555,0,0,0.05555555555555555,13.333333333333332,0)" xlink:href="#an"/><use transform="matrix(0.05555555555555555,0,0,0.05555555555555555,18.888888888888886,0)" xlink:href="#az"/><use transform="matrix(0.05555555555555555,0,0,0.05555555555555555,30,0)" xlink:href="#aA"/><use transform="matrix(0.05555555555555555,0,0,0.05555555555555555,35.55555555555555,0)" xlink:href="#aB"/><use transform="matrix(0.05555555555555555,0,0,0.05555555555555555,45.55555555555555,0)" xlink:href="#aC"/><use transform="matrix(0.05555555555555555,0,0,0.05555555555555555,56.66666666666666,0)" xlink:href="#ap"/><use transform="matrix(0.05555555555555555,0,0,0.05555555555555555,67.77777777777777,0)" xlink:href="#an"/><use transform="matrix(0.05555555555555555,0,0,0.05555555555555555,73.33333333333333,0)" xlink:href="#am"/><use transform="matrix(0.05555555555555555,0,0,0.05555555555555555,84.44444444444444,0)" xlink:href="#ap"/><use transform="matrix(0.05555555555555555,0,0,0.05555555555555555,95.55555555555556,0)" xlink:href="#an"/></g><use transform="matrix(0.05555555555555555,0,0,0.05555555555555555,0,0)" xlink:href="#aJ" id="l"/><g id="m"><use transform="matrix(0.05555555555555555,0,0,0.05555555555555555,0,0)" xlink:href="#ax"/><use transform="matrix(0.05555555555555555,0,0,0.05555555555555555,5.555555555555555,0)" xlink:href="#an"/><use transform="matrix(0.05555555555555555,0,0,0.05555555555555555,11.11111111111111,0)" xlink:href="#az"/><use transform="matrix(0.05555555555555555,0,0,0.05555555555555555,22.22222222222222,0)" xlink:href="#aA"/><use transform="matrix(0.05555555555555555,0,0,0.05555555555555555,27.77777777777778,0)" xlink:href="#aH"/><use transform="matrix(0.05555555555555555,0,0,0.05555555555555555,37.77777777777778,0)" xlink:href="#as"/><use transform="matrix(0.05555555555555555,0,0,0.05555555555555555,42.166666666666664,0)" xlink:href="#aI"/><use transform="matrix(0.05555555555555555,0,0,0.05555555555555555,52.166666666666664,0)" xlink:href="#am"/><use transform="matrix(0.05555555555555555,0,0,0.05555555555555555,63.27777777777777,0)" xlink:href="#ao"/><use transform="matrix(0.05555555555555555,0,0,0.05555555555555555,74.38888888888889,0)" xlink:href="#au"/><use transform="matrix(0.05555555555555555,0,0,0.05555555555555555,85.5,0)" xlink:href="#av"/><use transform="matrix(0.05555555555555555,0,0,0.05555555555555555,96.61111111111111,0)" xlink:href="#at"/></g><use transform="matrix(0.05555555555555555,0,0,0.05555555555555555,0,0)" xlink:href="#aJ" id="n"/><g id="o"><use transform="matrix(0.05555555555555555,0,0,0.05555555555555555,0,0)" xlink:href="#ay"/><use transform="matrix(0.05555555555555555,0,0,0.05555555555555555,7.777777777777778,0)" xlink:href="#ar"/><use transform="matrix(0.05555555555555555,0,0,0.05555555555555555,12.166666666666666,0)" xlink:href="#as"/><use transform="matrix(0.05555555555555555,0,0,0.05555555555555555,16.555555555555554,0)" xlink:href="#ap"/><use transform="matrix(0.05555555555555555,0,0,0.05555555555555555,27.666666666666664,0)" xlink:href="#am"/></g><path fill="#333" d="M106-169C34-169 62-67 57 0H25v-261h32l-1 103c12-21 28-36 61-36 89 0 53 116 60 194h-32v-121c2-32-8-49-39-48" id="aK"/><path fill="#333" d="M68-38c1 34 0 65-14 84H32c9-13 17-26 17-46H33v-38h35" id="aL"/><g id="p"><use transform="matrix(0.04938271604938272,0,0,0.04938271604938272,0,0)" xlink:href="#ax"/><use transform="matrix(0.04938271604938272,0,0,0.04938271604938272,4.938271604938272,0)" xlink:href="#at"/><use transform="matrix(0.04938271604938272,0,0,0.04938271604938272,9.876543209876544,0)" xlink:href="#an"/><use transform="matrix(0.04938271604938272,0,0,0.04938271604938272,14.814814814814817,0)" xlink:href="#ao"/><use transform="matrix(0.04938271604938272,0,0,0.04938271604938272,24.69135802469136,0)" xlink:href="#aH"/><use transform="matrix(0.04938271604938272,0,0,0.04938271604938272,33.580246913580254,0)" xlink:href="#an"/><use transform="matrix(0.04938271604938272,0,0,0.04938271604938272,38.518518518518526,0)" xlink:href="#aw"/><use transform="matrix(0.04938271604938272,0,0,0.04938271604938272,44.39506172839507,0)" xlink:href="#aB"/><use transform="matrix(0.04938271604938272,0,0,0.04938271604938272,53.28395061728396,0)" xlink:href="#aK"/><use transform="matrix(0.04938271604938272,0,0,0.04938271604938272,63.16049382716051,0)" xlink:href="#aw"/><use transform="matrix(0.04938271604938272,0,0,0.04938271604938272,69.03703703703705,0)" xlink:href="#aF"/><use transform="matrix(0.04938271604938272,0,0,0.04938271604938272,74.9135802469136,0)" xlink:href="#ay"/><use transform="matrix(0.04938271604938272,0,0,0.04938271604938272,81.82716049382718,0)" xlink:href="#ar"/><use transform="matrix(0.04938271604938272,0,0,0.04938271604938272,85.72839506172842,0)" xlink:href="#as"/><use transform="matrix(0.04938271604938272,0,0,0.04938271604938272,89.62962962962966,0)" xlink:href="#ap"/><use transform="matrix(0.04938271604938272,0,0,0.04938271604938272,99.5061728395062,0)" xlink:href="#am"/><use transform="matrix(0.04938271604938272,0,0,0.04938271604938272,109.38271604938275,0)" xlink:href="#aL"/></g><path fill="#333" d="M47-170H22l-4-78h33" id="aM"/><path fill="#333" d="M72 4L0-261h28L100 4H72" id="aN"/><g id="q"><use transform="matrix(0.04320987654320988,0,0,0.04320987654320988,0,0)" xlink:href="#aM"/><use transform="matrix(0.04320987654320988,0,0,0.04320987654320988,2.9382716049382718,0)" xlink:href="#aN"/><use transform="matrix(0.04320987654320988,0,0,0.04320987654320988,7.25925925925926,0)" xlink:href="#ap"/><use transform="matrix(0.04320987654320988,0,0,0.04320987654320988,15.901234567901236,0)" xlink:href="#aM"/></g><g id="r"><use transform="matrix(0.05555555555555555,0,0,0.05555555555555555,0,0)" xlink:href="#an"/><use transform="matrix(0.05555555555555555,0,0,0.05555555555555555,5.555555555555555,0)" xlink:href="#az"/><use transform="matrix(0.05555555555555555,0,0,0.05555555555555555,16.666666666666664,0)" xlink:href="#aA"/><use transform="matrix(0.05555555555555555,0,0,0.05555555555555555,22.22222222222222,0)" xlink:href="#aH"/><use transform="matrix(0.05555555555555555,0,0,0.05555555555555555,32.22222222222222,0)" xlink:href="#as"/><use transform="matrix(0.05555555555555555,0,0,0.05555555555555555,36.61111111111111,0)" xlink:href="#aI"/><use transform="matrix(0.05555555555555555,0,0,0.05555555555555555,46.61111111111111,0)" xlink:href="#am"/><use transform="matrix(0.05555555555555555,0,0,0.05555555555555555,57.72222222222222,0)" xlink:href="#ao"/><use transform="matrix(0.05555555555555555,0,0,0.05555555555555555,68.83333333333333,0)" xlink:href="#au"/><use transform="matrix(0.05555555555555555,0,0,0.05555555555555555,79.94444444444444,0)" xlink:href="#av"/><use transform="matrix(0.05555555555555555,0,0,0.05555555555555555,91.05555555555556,0)" xlink:href="#at"/><use transform="matrix(0.05555555555555555,0,0,0.05555555555555555,96.61111111111111,0)" xlink:href="#am"/><use transform="matrix(0.05555555555555555,0,0,0.05555555555555555,107.72222222222223,0)" xlink:href="#aw"/></g><g id="s"><use transform="matrix(0.05555555555555555,0,0,0.05555555555555555,0,0)" xlink:href="#aw"/><use transform="matrix(0.05555555555555555,0,0,0.05555555555555555,6.611111111111111,0)" xlink:href="#am"/><use transform="matrix(0.05555555555555555,0,0,0.05555555555555555,17.72222222222222,0)" xlink:href="#an"/><use transform="matrix(0.05555555555555555,0,0,0.05555555555555555,23.27777777777778,0)" xlink:href="#av"/><use transform="matrix(0.05555555555555555,0,0,0.05555555555555555,34.388888888888886,0)" xlink:href="#aw"/><use transform="matrix(0.05555555555555555,0,0,0.05555555555555555,41,0)" xlink:href="#ap"/></g><path fill="#333" d="M101-251c68 0 85 55 85 127S166 4 100 4C33 4 14-52 14-124c0-73 17-127 87-127zm-1 229c47 0 54-49 54-102s-4-102-53-102c-51 0-55 48-55 102 0 53 5 102 54 102" id="aO"/><use transform="matrix(0.05555555555555555,0,0,0.05555555555555555,0,0)" xlink:href="#aO" id="t"/><g id="u"><use transform="matrix(0.07407407407407408,0,0,0.07407407407407408,0,0)" xlink:href="#ar"/><use transform="matrix(0.07407407407407408,0,0,0.07407407407407408,5.851851851851853,0)" xlink:href="#as"/><use transform="matrix(0.07407407407407408,0,0,0.07407407407407408,11.703703703703706,0)" xlink:href="#ap"/><use transform="matrix(0.07407407407407408,0,0,0.07407407407407408,26.518518518518523,0)" xlink:href="#am"/></g><g id="v"><use transform="matrix(0.05555555555555555,0,0,0.05555555555555555,0,0)" xlink:href="#ar"/><use transform="matrix(0.05555555555555555,0,0,0.05555555555555555,4.388888888888888,0)" xlink:href="#as"/><use transform="matrix(0.05555555555555555,0,0,0.05555555555555555,8.777777777777777,0)" xlink:href="#ap"/><use transform="matrix(0.05555555555555555,0,0,0.05555555555555555,19.888888888888886,0)" xlink:href="#am"/></g><g id="w"><use transform="matrix(0.05555555555555555,0,0,0.05555555555555555,0,0)" xlink:href="#ap"/><use transform="matrix(0.05555555555555555,0,0,0.05555555555555555,11.11111111111111,0)" xlink:href="#av"/><use transform="matrix(0.05555555555555555,0,0,0.05555555555555555,22.22222222222222,0)" xlink:href="#ar"/><use transform="matrix(0.05555555555555555,0,0,0.05555555555555555,26.61111111111111,0)" xlink:href="#ar"/></g><path fill="#333" d="M205 0l-28-72H64L36 0H1l101-248h38L239 0h-34zm-38-99l-47-123c-12 45-31 82-46 123h93" id="aP"/><use transform="matrix(0.05555555555555555,0,0,0.05555555555555555,0,0)" xlink:href="#aP" id="x"/><g id="y"><use transform="matrix(0.05555555555555555,0,0,0.05555555555555555,0,0)" xlink:href="#at"/><use transform="matrix(0.05555555555555555,0,0,0.05555555555555555,5.555555555555555,0)" xlink:href="#an"/><use transform="matrix(0.05555555555555555,0,0,0.05555555555555555,11.11111111111111,0)" xlink:href="#ao"/><use transform="matrix(0.05555555555555555,0,0,0.05555555555555555,22.22222222222222,0)" xlink:href="#aB"/><use transform="matrix(0.05555555555555555,0,0,0.05555555555555555,32.22222222222222,0)" xlink:href="#av"/><use transform="matrix(0.05555555555555555,0,0,0.05555555555555555,43.33333333333333,0)" xlink:href="#an"/><use transform="matrix(0.05555555555555555,0,0,0.05555555555555555,48.888888888888886,0)" xlink:href="#ao"/><use transform="matrix(0.05555555555555555,0,0,0.05555555555555555,60,0)" xlink:href="#an"/><use transform="matrix(0.05555555555555555,0,0,0.05555555555555555,65.55555555555556,0)" xlink:href="#az"/></g><path fill="#333" d="M160-131c35 5 61 23 61 61C221 17 115-2 30 0v-248c76 3 177-17 177 60 0 33-19 50-47 57zm-97-11c50-1 110 9 110-42 0-47-63-36-110-37v79zm0 115c55-2 124 14 124-45 0-56-70-42-124-44v89" id="aQ"/><use transform="matrix(0.05555555555555555,0,0,0.05555555555555555,0,0)" xlink:href="#aQ" id="z"/><path fill="#333" d="M212-179c-10-28-35-45-73-45-59 0-87 40-87 99 0 60 29 101 89 101 43 0 62-24 78-52l27 14C228-24 195 4 139 4 59 4 22-46 18-125c-6-104 99-153 187-111 19 9 31 26 39 46" id="aR"/><use transform="matrix(0.05555555555555555,0,0,0.05555555555555555,0,0)" xlink:href="#aR" id="A"/><path fill="#333" d="M30-248c118-7 216 8 213 122C240-48 200 0 122 0H30v-248zM63-27c89 8 146-16 146-99s-60-101-146-95v194" id="aS"/><use transform="matrix(0.05555555555555555,0,0,0.05555555555555555,0,0)" xlink:href="#aS" id="B"/><g id="C"><use transform="matrix(0.05555555555555555,0,0,0.05555555555555555,0,0)" xlink:href="#at"/><use transform="matrix(0.05555555555555555,0,0,0.05555555555555555,5.555555555555555,0)" xlink:href="#an"/><use transform="matrix(0.05555555555555555,0,0,0.05555555555555555,11.11111111111111,0)" xlink:href="#ao"/><use transform="matrix(0.05555555555555555,0,0,0.05555555555555555,22.22222222222222,0)" xlink:href="#ar"/><use transform="matrix(0.05555555555555555,0,0,0.05555555555555555,26.61111111111111,0)" xlink:href="#as"/><use transform="matrix(0.05555555555555555,0,0,0.05555555555555555,31,0)" xlink:href="#ap"/><use transform="matrix(0.05555555555555555,0,0,0.05555555555555555,42.111111111111114,0)" xlink:href="#am"/><use transform="matrix(0.05555555555555555,0,0,0.05555555555555555,53.22222222222223,0)" xlink:href="#ao"/><use transform="matrix(0.05555555555555555,0,0,0.05555555555555555,64.33333333333334,0)" xlink:href="#am"/><use transform="matrix(0.05555555555555555,0,0,0.05555555555555555,75.44444444444446,0)" xlink:href="#aq"/></g><use transform="matrix(0.05555555555555555,0,0,0.05555555555555555,0,0)" xlink:href="#aP" id="D"/><path fill="#333" d="M16-82v-28h88v28H16" id="aT"/><use transform="matrix(0.05555555555555555,0,0,0.05555555555555555,0,0)" xlink:href="#aT" id="E"/><g id="F"><use transform="matrix(0.05555555555555555,0,0,0.05555555555555555,0,0)" xlink:href="#as"/><use transform="matrix(0.05555555555555555,0,0,0.05555555555555555,4.388888888888888,0)" xlink:href="#at"/></g><g id="G"><use transform="matrix(0.05555555555555555,0,0,0.05555555555555555,0,0)" xlink:href="#an"/><use transform="matrix(0.05555555555555555,0,0,0.05555555555555555,5.555555555555555,0)" xlink:href="#az"/><use transform="matrix(0.05555555555555555,0,0,0.05555555555555555,16.666666666666664,0)" xlink:href="#aA"/><use transform="matrix(0.05555555555555555,0,0,0.05555555555555555,22.22222222222222,0)" xlink:href="#aB"/><use transform="matrix(0.05555555555555555,0,0,0.05555555555555555,32.22222222222222,0)" xlink:href="#aC"/><use transform="matrix(0.05555555555555555,0,0,0.05555555555555555,43.33333333333333,0)" xlink:href="#ap"/><use transform="matrix(0.05555555555555555,0,0,0.05555555555555555,54.44444444444444,0)" xlink:href="#an"/><use transform="matrix(0.05555555555555555,0,0,0.05555555555555555,60,0)" xlink:href="#am"/><use transform="matrix(0.05555555555555555,0,0,0.05555555555555555,71.11111111111111,0)" xlink:href="#ap"/><use transform="matrix(0.05555555555555555,0,0,0.05555555555555555,82.22222222222223,0)" xlink:href="#an"/></g><g id="H"><use transform="matrix(0.05555555555555555,0,0,0.05555555555555555,0,0)" xlink:href="#as"/><use transform="matrix(0.05555555555555555,0,0,0.05555555555555555,4.388888888888888,0)" xlink:href="#aH"/></g><g id="I"><use transform="matrix(0.05555555555555555,0,0,0.05555555555555555,0,0)" xlink:href="#aM"/><use transform="matrix(0.05555555555555555,0,0,0.05555555555555555,3.7777777777777777,0)" xlink:href="#aN"/><use transform="matrix(0.05555555555555555,0,0,0.05555555555555555,9.333333333333332,0)" xlink:href="#ap"/><use transform="matrix(0.05555555555555555,0,0,0.05555555555555555,20.444444444444443,0)" xlink:href="#aM"/></g><g id="J"><use transform="matrix(0.05555555555555555,0,0,0.05555555555555555,0,0)" xlink:href="#aD"/><use transform="matrix(0.05555555555555555,0,0,0.05555555555555555,11.11111111111111,0)" xlink:href="#ap"/><use transform="matrix(0.05555555555555555,0,0,0.05555555555555555,22.22222222222222,0)" xlink:href="#aE"/></g><g id="K"><use transform="matrix(0.05555555555555555,0,0,0.05555555555555555,0,0)" xlink:href="#ap"/><use transform="matrix(0.05555555555555555,0,0,0.05555555555555555,11.11111111111111,0)" xlink:href="#aC"/><use transform="matrix(0.05555555555555555,0,0,0.05555555555555555,22.22222222222222,0)" xlink:href="#an"/></g><g id="L"><use transform="matrix(0.05555555555555555,0,0,0.05555555555555555,0,0)" xlink:href="#ar"/><use transform="matrix(0.05555555555555555,0,0,0.05555555555555555,4.388888888888888,0)" xlink:href="#as"/><use transform="matrix(0.05555555555555555,0,0,0.05555555555555555,8.777777777777777,0)" xlink:href="#ap"/><use transform="matrix(0.05555555555555555,0,0,0.05555555555555555,19.888888888888886,0)" xlink:href="#am"/></g><use transform="matrix(0.05555555555555555,0,0,0.05555555555555555,0,0)" xlink:href="#aQ" id="M"/><g id="N"><use transform="matrix(0.05555555555555555,0,0,0.05555555555555555,0,0)" xlink:href="#aE"/><use transform="matrix(0.05555555555555555,0,0,0.05555555555555555,11.11111111111111,0)" xlink:href="#aC"/></g><g id="O"><use transform="matrix(0.05555555555555555,0,0,0.05555555555555555,0,0)" xlink:href="#ar"/><use transform="matrix(0.05555555555555555,0,0,0.05555555555555555,4.388888888888888,0)" xlink:href="#as"/><use transform="matrix(0.05555555555555555,0,0,0.05555555555555555,8.777777777777777,0)" xlink:href="#ap"/><use transform="matrix(0.05555555555555555,0,0,0.05555555555555555,19.888888888888886,0)" xlink:href="#am"/></g><path fill="#333" d="M206 0h-36l-40-164L89 0H53L-1-190h32L70-26l43-164h34l41 164 42-164h31" id="aU"/><g id="P"><use transform="matrix(0.05555555555555555,0,0,0.05555555555555555,0,0)" xlink:href="#aU"/><use transform="matrix(0.05555555555555555,0,0,0.05555555555555555,14.388888888888888,0)" xlink:href="#as"/><use transform="matrix(0.05555555555555555,0,0,0.05555555555555555,18.777777777777775,0)" xlink:href="#an"/><use transform="matrix(0.05555555555555555,0,0,0.05555555555555555,24.33333333333333,0)" xlink:href="#aK"/></g><g id="Q"><use transform="matrix(0.05555555555555555,0,0,0.05555555555555555,0,0)" xlink:href="#aM"/><use transform="matrix(0.05555555555555555,0,0,0.05555555555555555,3.7777777777777777,0)" xlink:href="#aN"/><use transform="matrix(0.05555555555555555,0,0,0.05555555555555555,9.333333333333332,0)" xlink:href="#ap"/><use transform="matrix(0.05555555555555555,0,0,0.05555555555555555,20.444444444444443,0)" xlink:href="#aM"/><use transform="matrix(0.05555555555555555,0,0,0.05555555555555555,24.22222222222222,0)" xlink:href="#aL"/></g><path fill="#333" d="M210-169c-67 3-38 105-44 169h-31v-121c0-29-5-50-35-48C34-165 62-65 56 0H25l-1-190h30c1 10-1 24 2 32 10-44 99-50 107 0 11-21 27-35 58-36 85-2 47 119 55 194h-31v-121c0-29-5-49-35-48" id="aV"/><path fill="#333" d="M179-190L93 31C79 59 56 82 12 73V49c39 6 53-20 64-50L1-190h34L92-34l54-156h33" id="aW"/><g id="R"><use transform="matrix(0.05555555555555555,0,0,0.05555555555555555,0,0)" xlink:href="#am"/><use transform="matrix(0.05555555555555555,0,0,0.05555555555555555,11.11111111111111,0)" xlink:href="#aV"/><use transform="matrix(0.05555555555555555,0,0,0.05555555555555555,27.72222222222222,0)" xlink:href="#az"/><use transform="matrix(0.05555555555555555,0,0,0.05555555555555555,38.83333333333333,0)" xlink:href="#an"/><use transform="matrix(0.05555555555555555,0,0,0.05555555555555555,44.388888888888886,0)" xlink:href="#aW"/></g><g id="S"><use transform="matrix(0.05555555555555555,0,0,0.05555555555555555,0,0)" xlink:href="#an"/><use transform="matrix(0.05555555555555555,0,0,0.05555555555555555,5.555555555555555,0)" xlink:href="#az"/><use transform="matrix(0.05555555555555555,0,0,0.05555555555555555,16.666666666666664,0)" xlink:href="#aA"/><use transform="matrix(0.05555555555555555,0,0,0.05555555555555555,22.22222222222222,0)" xlink:href="#aB"/><use transform="matrix(0.05555555555555555,0,0,0.05555555555555555,32.22222222222222,0)" xlink:href="#aC"/><use transform="matrix(0.05555555555555555,0,0,0.05555555555555555,43.33333333333333,0)" xlink:href="#ap"/><use transform="matrix(0.05555555555555555,0,0,0.05555555555555555,54.44444444444444,0)" xlink:href="#an"/></g><g id="T"><use transform="matrix(0.05555555555555555,0,0,0.05555555555555555,0,0)" xlink:href="#aw"/><use transform="matrix(0.05555555555555555,0,0,0.05555555555555555,6.611111111111111,0)" xlink:href="#am"/><use transform="matrix(0.05555555555555555,0,0,0.05555555555555555,17.72222222222222,0)" xlink:href="#aH"/><use transform="matrix(0.05555555555555555,0,0,0.05555555555555555,27.72222222222222,0)" xlink:href="#an"/></g><g id="U"><use transform="matrix(0.05555555555555555,0,0,0.05555555555555555,0,0)" xlink:href="#an"/><use transform="matrix(0.05555555555555555,0,0,0.05555555555555555,5.555555555555555,0)" xlink:href="#az"/><use transform="matrix(0.05555555555555555,0,0,0.05555555555555555,16.666666666666664,0)" xlink:href="#aA"/><use transform="matrix(0.05555555555555555,0,0,0.05555555555555555,22.22222222222222,0)" xlink:href="#aB"/><use transform="matrix(0.05555555555555555,0,0,0.05555555555555555,32.22222222222222,0)" xlink:href="#aC"/><use transform="matrix(0.05555555555555555,0,0,0.05555555555555555,43.33333333333333,0)" xlink:href="#ap"/><use transform="matrix(0.05555555555555555,0,0,0.05555555555555555,54.44444444444444,0)" xlink:href="#an"/><use transform="matrix(0.05555555555555555,0,0,0.05555555555555555,60,0)" xlink:href="#am"/><use transform="matrix(0.05555555555555555,0,0,0.05555555555555555,71.11111111111111,0)" xlink:href="#ap"/><use transform="matrix(0.05555555555555555,0,0,0.05555555555555555,82.22222222222223,0)" xlink:href="#an"/></g><use transform="matrix(0.05555555555555555,0,0,0.05555555555555555,0,0)" xlink:href="#aR" id="V"/><g id="W"><use transform="matrix(0.05555555555555555,0,0,0.05555555555555555,0,0)" xlink:href="#am"/><use transform="matrix(0.05555555555555555,0,0,0.05555555555555555,11.11111111111111,0)" xlink:href="#ar"/><use transform="matrix(0.05555555555555555,0,0,0.05555555555555555,15.5,0)" xlink:href="#aH"/><use transform="matrix(0.05555555555555555,0,0,0.05555555555555555,25.5,0)" xlink:href="#am"/></g><use transform="matrix(0.05555555555555555,0,0,0.05555555555555555,0,0)" xlink:href="#aS" id="X"/><g id="Y"><use transform="matrix(0.05555555555555555,0,0,0.05555555555555555,0,0)" xlink:href="#am"/><use transform="matrix(0.05555555555555555,0,0,0.05555555555555555,11.11111111111111,0)" xlink:href="#ar"/><use transform="matrix(0.05555555555555555,0,0,0.05555555555555555,15.5,0)" xlink:href="#aH"/><use transform="matrix(0.05555555555555555,0,0,0.05555555555555555,25.5,0)" xlink:href="#am"/></g><g id="Z"><use transform="matrix(0.05555555555555555,0,0,0.05555555555555555,0,0)" xlink:href="#aB"/><use transform="matrix(0.05555555555555555,0,0,0.05555555555555555,10,0)" xlink:href="#aC"/><use transform="matrix(0.05555555555555555,0,0,0.05555555555555555,21.11111111111111,0)" xlink:href="#ap"/><use transform="matrix(0.05555555555555555,0,0,0.05555555555555555,32.22222222222222,0)" xlink:href="#an"/><use transform="matrix(0.05555555555555555,0,0,0.05555555555555555,37.77777777777778,0)" xlink:href="#am"/><use transform="matrix(0.05555555555555555,0,0,0.05555555555555555,48.888888888888886,0)" xlink:href="#ap"/><use transform="matrix(0.05555555555555555,0,0,0.05555555555555555,60,0)" xlink:href="#an"/></g><g id="aa"><use transform="matrix(0.05555555555555555,0,0,0.05555555555555555,0,0)" xlink:href="#an"/><use transform="matrix(0.05555555555555555,0,0,0.05555555555555555,5.555555555555555,0)" xlink:href="#aC"/></g><g id="ab"><use transform="matrix(0.05555555555555555,0,0,0.05555555555555555,0,0)" xlink:href="#aF"/><use transform="matrix(0.05555555555555555,0,0,0.05555555555555555,6.611111111111111,0)" xlink:href="#ar"/><use transform="matrix(0.05555555555555555,0,0,0.05555555555555555,11,0)" xlink:href="#aD"/><use transform="matrix(0.05555555555555555,0,0,0.05555555555555555,22.11111111111111,0)" xlink:href="#aH"/><use transform="matrix(0.05555555555555555,0,0,0.05555555555555555,32.111111111111114,0)" xlink:href="#an"/></g><g id="ac"><use transform="matrix(0.05555555555555555,0,0,0.05555555555555555,0,0)" xlink:href="#ar"/><use transform="matrix(0.05555555555555555,0,0,0.05555555555555555,4.388888888888888,0)" xlink:href="#as"/><use transform="matrix(0.05555555555555555,0,0,0.05555555555555555,8.777777777777777,0)" xlink:href="#ap"/><use transform="matrix(0.05555555555555555,0,0,0.05555555555555555,19.888888888888886,0)" xlink:href="#am"/><use transform="matrix(0.05555555555555555,0,0,0.05555555555555555,31,0)" xlink:href="#aG"/></g><g id="ad"><use transform="matrix(0.05555555555555555,0,0,0.05555555555555555,0,0)" xlink:href="#az"/><use transform="matrix(0.05555555555555555,0,0,0.05555555555555555,11.11111111111111,0)" xlink:href="#av"/><use transform="matrix(0.05555555555555555,0,0,0.05555555555555555,22.22222222222222,0)" xlink:href="#an"/></g><g id="ae"><use transform="matrix(0.05555555555555555,0,0,0.05555555555555555,0,0)" xlink:href="#ar"/><use transform="matrix(0.05555555555555555,0,0,0.05555555555555555,4.388888888888888,0)" xlink:href="#as"/><use transform="matrix(0.05555555555555555,0,0,0.05555555555555555,8.777777777777777,0)" xlink:href="#ap"/><use transform="matrix(0.05555555555555555,0,0,0.05555555555555555,19.888888888888886,0)" xlink:href="#am"/><use transform="matrix(0.05555555555555555,0,0,0.05555555555555555,31,0)" xlink:href="#aL"/></g><g id="af"><use transform="matrix(0.05555555555555555,0,0,0.05555555555555555,0,0)" xlink:href="#aB"/><use transform="matrix(0.05555555555555555,0,0,0.05555555555555555,10,0)" xlink:href="#av"/><use transform="matrix(0.05555555555555555,0,0,0.05555555555555555,21.11111111111111,0)" xlink:href="#an"/></g><path fill="#333" d="M25 0v-261h50V0H25" id="aX"/><path fill="#333" d="M25-224v-37h50v37H25zM25 0v-190h50V0H25" id="aY"/><path fill="#333" d="M135-194c52 0 70 43 70 98 0 56-19 99-73 100-30 1-46-15-58-35L72 0H24l1-261h50v104c11-23 29-37 60-37zM114-30c31 0 40-27 40-66 0-37-7-63-39-63s-41 28-41 65c0 36 8 64 40 64" id="aZ"/><path fill="#333" d="M121-226c-27-7-43 5-38 36h38v33H83V0H34v-157H6v-33h28c-9-59 32-81 87-68v32" id="ba"/><path fill="#333" d="M115-3C79 11 28 4 28-45v-112H4v-33h27l15-45h31v45h36v33H77v99c-1 23 16 31 38 25v30" id="bb"/><g id="ag"><use transform="matrix(0.06172839506172839,0,0,0.06172839506172839,0,0)" xlink:href="#aX"/><use transform="matrix(0.06172839506172839,0,0,0.06172839506172839,6.172839506172839,0)" xlink:href="#aY"/><use transform="matrix(0.06172839506172839,0,0,0.06172839506172839,12.345679012345679,0)" xlink:href="#aZ"/><use transform="matrix(0.06172839506172839,0,0,0.06172839506172839,25.864197530864196,0)" xlink:href="#ba"/><use transform="matrix(0.06172839506172839,0,0,0.06172839506172839,33.20987654320987,0)" xlink:href="#bb"/></g><g id="ah"><use transform="matrix(0.04938271604938272,0,0,0.04938271604938272,0,0)" xlink:href="#at"/><use transform="matrix(0.04938271604938272,0,0,0.04938271604938272,4.938271604938272,0)" xlink:href="#an"/><use transform="matrix(0.04938271604938272,0,0,0.04938271604938272,9.876543209876544,0)" xlink:href="#ao"/><use transform="matrix(0.04938271604938272,0,0,0.04938271604938272,19.75308641975309,0)" xlink:href="#aV"/><use transform="matrix(0.04938271604938272,0,0,0.04938271604938272,34.51851851851852,0)" xlink:href="#am"/><use transform="matrix(0.04938271604938272,0,0,0.04938271604938272,44.39506172839506,0)" xlink:href="#aV"/><use transform="matrix(0.04938271604938272,0,0,0.04938271604938272,59.1604938271605,0)" xlink:href="#aB"/><use transform="matrix(0.04938271604938272,0,0,0.04938271604938272,68.04938271604938,0)" xlink:href="#az"/><use transform="matrix(0.04938271604938272,0,0,0.04938271604938272,77.92592592592592,0)" xlink:href="#aW"/></g><g id="ai"><use transform="matrix(0.04938271604938272,0,0,0.04938271604938272,0,0)" xlink:href="#at"/><use transform="matrix(0.04938271604938272,0,0,0.04938271604938272,4.938271604938272,0)" xlink:href="#an"/><use transform="matrix(0.04938271604938272,0,0,0.04938271604938272,9.876543209876544,0)" xlink:href="#ao"/><use transform="matrix(0.04938271604938272,0,0,0.04938271604938272,19.75308641975309,0)" xlink:href="#aH"/><use transform="matrix(0.04938271604938272,0,0,0.04938271604938272,28.641975308641978,0)" xlink:href="#an"/><use transform="matrix(0.04938271604938272,0,0,0.04938271604938272,33.580246913580254,0)" xlink:href="#aw"/><use transform="matrix(0.04938271604938272,0,0,0.04938271604938272,39.4567901234568,0)" xlink:href="#aB"/><use transform="matrix(0.04938271604938272,0,0,0.04938271604938272,48.345679012345684,0)" xlink:href="#aK"/><use transform="matrix(0.04938271604938272,0,0,0.04938271604938272,58.22222222222223,0)" xlink:href="#aw"/></g><g id="aj"><use transform="matrix(0.04938271604938272,0,0,0.04938271604938272,0,0)" xlink:href="#at"/><use transform="matrix(0.04938271604938272,0,0,0.04938271604938272,4.938271604938272,0)" xlink:href="#an"/><use transform="matrix(0.04938271604938272,0,0,0.04938271604938272,9.876543209876544,0)" xlink:href="#ao"/><use transform="matrix(0.04938271604938272,0,0,0.04938271604938272,19.75308641975309,0)" xlink:href="#aH"/><use transform="matrix(0.04938271604938272,0,0,0.04938271604938272,28.641975308641978,0)" xlink:href="#an"/><use transform="matrix(0.04938271604938272,0,0,0.04938271604938272,33.580246913580254,0)" xlink:href="#aw"/><use transform="matrix(0.04938271604938272,0,0,0.04938271604938272,39.4567901234568,0)" xlink:href="#ar"/><use transform="matrix(0.04938271604938272,0,0,0.04938271604938272,43.35802469135803,0)" xlink:href="#am"/><use transform="matrix(0.04938271604938272,0,0,0.04938271604938272,53.23456790123457,0)" xlink:href="#ap"/></g><path fill="#333" d="M24-231v-30h32v30H24zM-9 49c24 4 33-6 33-30v-209h32V24c2 40-23 58-65 49V49" id="bc"/><g id="ak"><use transform="matrix(0.04938271604938272,0,0,0.04938271604938272,0,0)" xlink:href="#at"/><use transform="matrix(0.04938271604938272,0,0,0.04938271604938272,4.938271604938272,0)" xlink:href="#an"/><use transform="matrix(0.04938271604938272,0,0,0.04938271604938272,9.876543209876544,0)" xlink:href="#ao"/><use transform="matrix(0.04938271604938272,0,0,0.04938271604938272,19.75308641975309,0)" xlink:href="#aH"/><use transform="matrix(0.04938271604938272,0,0,0.04938271604938272,28.641975308641978,0)" xlink:href="#an"/><use transform="matrix(0.04938271604938272,0,0,0.04938271604938272,33.580246913580254,0)" xlink:href="#aw"/><use transform="matrix(0.04938271604938272,0,0,0.04938271604938272,39.4567901234568,0)" xlink:href="#bc"/><use transform="matrix(0.04938271604938272,0,0,0.04938271604938272,43.35802469135803,0)" xlink:href="#aC"/><use transform="matrix(0.04938271604938272,0,0,0.04938271604938272,53.23456790123457,0)" xlink:href="#as"/><use transform="matrix(0.04938271604938272,0,0,0.04938271604938272,57.135802469135804,0)" xlink:href="#ap"/></g></defs></g></svg>